<svg id="svg" version="1.1" xmlns="http://www.w3.org/2000/svg" xmlns:xlink="http://www.w3.org/1999/xlink" width="400" height="400" viewBox="0, 0, 400,400"><g id="svgg"><path id="path0" d="M349.600 0.800 C 349.600 1.020,348.880 1.200,348.000 1.200 C 347.120 1.200,346.400 1.380,346.400 1.600 C 346.400 1.820,345.860 2.000,345.200 2.000 C 344.540 2.000,344.000 2.180,344.000 2.400 C 344.000 2.620,343.550 2.800,343.000 2.800 C 342.450 2.800,342.000 2.980,342.000 3.200 C 342.000 3.420,341.640 3.600,341.200 3.600 C 340.760 3.600,340.400 3.780,340.400 4.000 C 340.400 4.220,340.040 4.400,339.600 4.400 C 339.160 4.400,338.800 4.580,338.800 4.800 C 338.800 5.020,338.440 5.200,338.000 5.200 C 337.560 5.200,337.200 5.380,337.200 5.600 C 337.200 5.820,336.880 6.000,336.488 6.000 C 336.097 6.000,335.517 6.360,335.200 6.800 C 334.883 7.240,334.318 7.600,333.945 7.600 C 333.572 7.600,333.207 7.736,333.133 7.903 C 333.060 8.070,332.190 8.829,331.200 9.590 C 327.653 12.316,305.200 35.106,305.200 35.980 C 305.200 37.156,363.646 95.600,364.823 95.600 C 365.659 95.600,391.200 70.435,391.200 69.612 C 391.200 69.405,391.650 68.786,392.200 68.236 C 392.750 67.686,393.200 66.998,393.200 66.706 C 393.200 66.415,393.560 65.917,394.000 65.600 C 394.440 65.283,394.800 64.703,394.800 64.312 C 394.800 63.920,394.980 63.600,395.200 63.600 C 395.420 63.600,395.600 63.240,395.600 62.800 C 395.600 62.360,395.780 62.000,396.000 62.000 C 396.220 62.000,396.400 61.640,396.400 61.200 C 396.400 60.760,396.580 60.400,396.800 60.400 C 397.020 60.400,397.200 60.040,397.200 59.600 C 397.200 59.160,397.380 58.800,397.600 58.800 C 397.820 58.800,398.000 58.361,398.000 57.824 C 398.000 57.287,398.180 56.736,398.400 56.600 C 398.620 56.464,398.800 55.928,398.800 55.410 C 398.800 54.891,399.025 54.392,399.300 54.300 C 399.685 54.172,399.800 51.471,399.800 42.600 C 399.800 33.729,399.685 31.028,399.300 30.900 C 399.025 30.808,398.800 30.118,398.800 29.367 C 398.800 28.615,398.620 28.000,398.400 28.000 C 398.180 28.000,398.000 27.550,398.000 27.000 C 398.000 26.450,397.820 26.000,397.600 26.000 C 397.380 26.000,397.200 25.651,397.200 25.224 C 397.200 24.797,397.020 24.336,396.800 24.200 C 396.580 24.064,396.400 23.643,396.400 23.265 C 396.400 22.886,396.040 22.317,395.600 22.000 C 395.160 21.683,394.800 21.103,394.800 20.712 C 394.800 20.320,394.620 20.000,394.400 20.000 C 394.180 20.000,394.000 19.712,394.000 19.360 C 394.000 19.009,393.460 18.217,392.800 17.600 C 392.140 16.983,391.600 16.217,391.600 15.898 C 391.600 15.286,385.731 9.200,385.142 9.200 C 384.954 9.200,384.701 9.209,384.579 9.220 C 384.457 9.231,383.845 8.691,383.218 8.020 C 382.592 7.349,381.791 6.800,381.440 6.800 C 381.088 6.800,380.800 6.620,380.800 6.400 C 380.800 6.180,380.480 6.000,380.088 6.000 C 379.697 6.000,379.117 5.640,378.800 5.200 C 378.483 4.760,377.920 4.400,377.549 4.400 C 376.968 4.400,375.761 3.889,372.705 2.350 C 372.323 2.157,371.659 2.000,371.229 2.000 C 370.799 2.000,370.336 1.820,370.200 1.600 C 370.064 1.380,369.243 1.200,368.376 1.200 C 367.509 1.200,366.800 1.020,366.800 0.800 C 366.800 0.546,363.667 0.400,358.200 0.400 C 352.733 0.400,349.600 0.546,349.600 0.800 M284.530 55.795 C 282.952 57.408,281.767 58.834,281.897 58.964 C 282.027 59.094,281.905 59.200,281.625 59.200 C 280.961 59.200,259.200 80.961,259.200 81.625 C 259.200 81.905,259.090 82.023,258.956 81.889 C 258.588 81.522,154.400 185.830,154.400 186.565 C 154.400 186.914,154.220 187.200,154.000 187.200 C 153.780 187.200,153.600 187.740,153.600 188.400 C 153.600 189.060,153.420 189.600,153.200 189.600 C 152.980 189.600,152.800 190.500,152.800 191.600 C 152.800 192.700,152.620 193.600,152.400 193.600 C 152.180 193.600,152.000 194.399,152.000 195.376 C 152.000 196.353,151.820 197.264,151.600 197.400 C 151.380 197.536,151.200 198.447,151.200 199.424 C 151.200 200.401,151.020 201.200,150.800 201.200 C 150.580 201.200,150.400 202.100,150.400 203.200 C 150.400 204.300,150.220 205.200,150.000 205.200 C 149.780 205.200,149.600 206.100,149.600 207.200 C 149.600 208.300,149.420 209.200,149.200 209.200 C 148.980 209.200,148.800 209.999,148.800 210.976 C 148.800 211.953,148.620 212.864,148.400 213.000 C 148.180 213.136,148.000 214.036,148.000 215.000 C 148.000 215.964,147.820 216.864,147.600 217.000 C 147.380 217.136,147.200 218.036,147.200 219.000 C 147.200 219.964,147.020 220.864,146.800 221.000 C 146.580 221.136,146.400 222.036,146.400 223.000 C 146.400 223.964,146.220 224.864,146.000 225.000 C 145.780 225.136,145.600 226.011,145.600 226.944 C 145.600 227.877,145.438 228.811,145.241 229.020 C 145.044 229.229,144.783 230.120,144.661 231.000 C 144.540 231.880,144.247 233.590,144.009 234.800 C 143.772 236.010,143.538 237.720,143.489 238.600 C 143.440 239.480,143.193 240.419,142.941 240.688 C 142.689 240.956,142.519 241.901,142.564 242.788 C 142.610 243.674,142.542 244.400,142.415 244.400 C 141.686 244.400,140.863 252.544,141.548 252.968 C 141.740 253.086,142.008 253.682,142.144 254.292 C 142.616 256.411,145.429 258.800,147.454 258.800 C 148.194 258.800,148.800 258.980,148.800 259.200 C 148.800 259.420,149.520 259.600,150.400 259.600 C 151.280 259.600,152.000 259.441,152.000 259.247 C 152.000 259.052,153.215 258.789,154.700 258.661 C 157.687 258.404,158.761 258.248,162.000 257.600 C 163.210 257.357,164.920 257.060,165.800 256.939 C 166.680 256.817,167.571 256.556,167.780 256.359 C 167.989 256.162,168.923 256.000,169.856 256.000 C 170.789 256.000,171.664 255.820,171.800 255.600 C 171.936 255.380,172.811 255.200,173.744 255.200 C 174.677 255.200,175.611 255.038,175.820 254.841 C 176.029 254.644,176.920 254.383,177.800 254.261 C 178.680 254.140,180.390 253.842,181.600 253.600 C 182.810 253.358,184.520 253.060,185.400 252.939 C 186.280 252.817,187.171 252.556,187.380 252.359 C 187.589 252.162,188.523 252.000,189.456 252.000 C 190.389 252.000,191.264 251.820,191.400 251.600 C 191.536 251.380,192.537 251.200,193.624 251.200 C 194.711 251.200,195.600 251.020,195.600 250.800 C 195.600 250.580,196.399 250.400,197.376 250.400 C 198.353 250.400,199.264 250.220,199.400 250.000 C 199.536 249.780,200.447 249.600,201.424 249.600 C 202.401 249.600,203.200 249.420,203.200 249.200 C 203.200 248.980,204.100 248.800,205.200 248.800 C 206.300 248.800,207.200 248.620,207.200 248.400 C 207.200 248.180,208.100 248.000,209.200 248.000 C 210.300 248.000,211.200 247.820,211.200 247.600 C 211.200 247.380,211.740 247.200,212.400 247.200 C 213.060 247.200,213.600 247.020,213.600 246.800 C 213.600 246.580,213.885 246.400,214.233 246.400 C 214.955 246.400,348.000 113.513,348.000 112.792 C 348.000 112.257,345.702 110.000,345.158 110.000 C 344.961 110.000,344.800 109.819,344.800 109.597 C 344.800 109.039,295.808 60.000,295.250 60.000 C 295.003 60.000,294.800 59.857,294.800 59.683 C 294.800 59.125,288.438 52.799,287.909 52.831 C 287.629 52.848,286.109 54.182,284.530 55.795 M42.200 67.200 C 42.064 67.420,41.063 67.600,39.976 67.600 C 38.889 67.600,38.000 67.780,38.000 68.000 C 38.000 68.220,37.381 68.400,36.624 68.400 C 35.867 68.400,35.136 68.580,35.000 68.800 C 34.864 69.020,34.223 69.200,33.576 69.200 C 32.929 69.200,32.400 69.380,32.400 69.600 C 32.400 69.820,32.040 70.000,31.600 70.000 C 31.160 70.000,30.800 70.180,30.800 70.400 C 30.800 70.620,30.457 70.800,30.038 70.800 C 29.080 70.800,26.012 72.370,25.153 73.300 C 24.797 73.685,24.212 74.000,23.853 74.000 C 23.494 74.000,23.200 74.180,23.200 74.400 C 23.200 74.620,22.850 74.800,22.423 74.800 C 21.995 74.800,21.394 75.159,21.087 75.597 C 20.780 76.036,20.409 76.276,20.264 76.131 C 20.119 75.986,20.000 76.077,20.000 76.333 C 20.000 76.590,19.733 76.800,19.406 76.800 C 18.770 76.800,9.200 86.201,9.200 86.826 C 9.200 87.032,9.212 87.304,9.226 87.430 C 9.241 87.557,8.881 87.983,8.426 88.377 C 7.972 88.771,7.600 89.322,7.600 89.600 C 7.600 89.878,7.271 90.397,6.870 90.753 C 6.468 91.109,5.884 91.985,5.572 92.700 C 5.260 93.415,4.869 94.000,4.702 94.000 C 4.536 94.000,4.400 94.360,4.400 94.800 C 4.400 95.240,4.220 95.600,4.000 95.600 C 3.780 95.600,3.600 95.960,3.600 96.400 C 3.600 96.840,3.420 97.200,3.200 97.200 C 2.980 97.200,2.800 97.740,2.800 98.400 C 2.800 99.060,2.620 99.600,2.400 99.600 C 2.180 99.600,2.000 100.140,2.000 100.800 C 2.000 101.460,1.820 102.000,1.600 102.000 C 1.380 102.000,1.200 102.525,1.200 103.167 C 1.200 103.808,0.975 104.408,0.700 104.500 C -0.036 104.745,-0.036 363.255,0.700 363.500 C 0.975 363.592,1.200 364.271,1.200 365.010 C 1.200 365.748,1.380 366.464,1.600 366.600 C 1.820 366.736,2.000 367.287,2.000 367.824 C 2.000 368.361,2.180 368.800,2.400 368.800 C 2.620 368.800,2.800 369.250,2.800 369.800 C 2.800 370.350,2.980 370.800,3.200 370.800 C 3.420 370.800,3.600 371.160,3.600 371.600 C 3.600 372.040,3.780 372.400,4.000 372.400 C 4.220 372.400,4.400 372.760,4.400 373.200 C 4.400 373.640,4.580 374.000,4.800 374.000 C 5.020 374.000,5.200 374.270,5.200 374.600 C 5.200 374.930,5.380 375.200,5.600 375.200 C 5.820 375.200,6.000 375.560,6.000 376.000 C 6.000 376.440,6.180 376.800,6.400 376.800 C 6.620 376.800,6.800 377.036,6.800 377.325 C 6.800 377.613,7.160 378.236,7.600 378.708 C 8.040 379.180,8.400 379.754,8.400 379.983 C 8.400 380.212,8.580 380.400,8.800 380.400 C 9.020 380.400,9.200 380.670,9.200 381.000 C 9.200 381.330,9.410 381.600,9.667 381.600 C 9.923 381.600,10.017 381.717,9.874 381.859 C 9.731 382.002,9.928 382.407,10.312 382.759 C 10.695 383.112,11.637 384.236,12.405 385.258 C 13.172 386.281,14.340 387.491,15.000 387.948 C 15.660 388.404,16.920 389.410,17.800 390.181 C 18.680 390.953,19.598 391.588,19.841 391.592 C 20.083 391.597,20.846 392.140,21.537 392.800 C 22.228 393.460,23.064 394.000,23.396 394.000 C 23.728 394.000,24.001 394.135,24.003 394.300 C 24.007 394.665,25.949 395.600,26.703 395.600 C 27.002 395.600,27.136 395.780,27.000 396.000 C 26.864 396.220,27.123 396.400,27.576 396.400 C 28.029 396.400,28.400 396.580,28.400 396.800 C 28.400 397.020,28.760 397.200,29.200 397.200 C 29.640 397.200,30.000 397.380,30.000 397.600 C 30.000 397.820,30.362 398.000,30.805 398.000 C 31.248 398.000,31.923 398.159,32.305 398.353 C 32.687 398.548,33.522 398.953,34.161 399.253 C 35.810 400.030,298.441 400.077,298.700 399.300 C 298.792 399.025,299.392 398.800,300.033 398.800 C 300.675 398.800,301.200 398.620,301.200 398.400 C 301.200 398.180,301.639 398.000,302.176 398.000 C 302.713 398.000,303.264 397.820,303.400 397.600 C 303.536 397.380,303.982 397.200,304.390 397.200 C 304.799 397.200,305.193 397.065,305.267 396.900 C 305.340 396.735,306.300 396.153,307.400 395.607 C 308.500 395.061,309.691 394.296,310.047 393.907 C 310.403 393.518,310.922 393.200,311.200 393.200 C 311.478 393.200,311.997 392.866,312.353 392.457 C 312.709 392.049,313.409 391.585,313.910 391.427 C 314.847 391.131,323.600 382.674,323.600 382.064 C 323.600 381.764,324.036 381.163,325.593 379.317 C 325.817 379.051,326.000 378.556,326.000 378.217 C 326.000 377.878,326.180 377.600,326.400 377.600 C 326.620 377.600,326.800 377.280,326.800 376.888 C 326.800 376.497,327.160 375.917,327.600 375.600 C 328.040 375.283,328.400 374.703,328.400 374.312 C 328.400 373.920,328.580 373.600,328.800 373.600 C 329.020 373.600,329.200 373.240,329.200 372.800 C 329.200 372.360,329.380 372.000,329.600 372.000 C 329.820 372.000,330.000 371.550,330.000 371.000 C 330.000 370.450,330.180 370.000,330.400 370.000 C 330.620 370.000,330.800 369.550,330.800 369.000 C 330.800 368.450,330.980 368.000,331.200 368.000 C 331.420 368.000,331.600 367.471,331.600 366.824 C 331.600 366.177,331.780 365.536,332.000 365.400 C 332.220 365.264,332.400 364.623,332.400 363.976 C 332.400 363.329,332.580 362.800,332.800 362.800 C 333.022 362.800,333.200 361.733,333.200 360.400 C 333.200 359.067,333.378 358.000,333.600 358.000 C 333.865 358.000,334.000 333.533,334.000 285.400 C 334.000 237.267,333.865 212.800,333.600 212.800 C 333.380 212.800,333.200 212.260,333.200 211.600 C 333.200 210.940,333.064 210.400,332.898 210.400 C 332.731 210.400,332.340 209.815,332.028 209.100 C 331.716 208.385,331.176 207.530,330.828 207.200 C 330.479 206.870,329.940 206.105,329.630 205.500 C 329.319 204.895,328.852 204.400,328.592 204.400 C 328.332 204.400,327.554 203.860,326.863 203.200 C 326.172 202.540,325.336 202.000,325.004 202.000 C 324.672 202.000,324.400 201.820,324.400 201.600 C 324.400 201.380,323.950 201.200,323.400 201.200 C 322.850 201.200,322.400 201.020,322.400 200.800 C 322.400 200.262,311.332 200.262,311.000 200.800 C 310.864 201.020,310.403 201.200,309.976 201.200 C 309.549 201.200,309.200 201.380,309.200 201.600 C 309.200 201.820,308.840 202.000,308.400 202.000 C 307.960 202.000,307.600 202.150,307.600 202.332 C 307.600 202.515,307.106 202.920,306.503 203.232 C 305.272 203.869,302.800 206.192,302.800 206.711 C 302.800 206.897,302.485 207.407,302.100 207.845 C 301.031 209.060,300.400 210.304,300.400 211.195 C 300.400 211.638,300.220 212.000,300.000 212.000 C 299.735 212.000,299.600 235.325,299.600 281.176 C 299.600 326.863,299.464 350.437,299.200 350.600 C 298.980 350.736,298.800 351.827,298.800 353.024 C 298.800 354.221,298.620 355.200,298.400 355.200 C 298.180 355.200,298.000 355.740,298.000 356.400 C 298.000 357.060,297.859 357.600,297.686 357.600 C 297.514 357.600,297.080 358.095,296.722 358.700 C 295.691 360.445,291.750 364.400,291.043 364.400 C 290.689 364.400,290.400 364.580,290.400 364.800 C 290.400 365.020,290.040 365.200,289.600 365.200 C 289.160 365.200,288.800 365.380,288.800 365.600 C 288.800 365.820,288.080 366.000,287.200 366.000 C 286.320 366.000,285.600 366.180,285.600 366.400 C 285.600 366.955,48.143 366.955,47.800 366.400 C 47.664 366.180,46.933 366.000,46.176 366.000 C 45.419 366.000,44.800 365.820,44.800 365.600 C 44.800 365.380,44.440 365.200,44.000 365.200 C 43.560 365.200,43.200 365.020,43.200 364.800 C 43.200 364.580,42.932 364.400,42.605 364.400 C 41.322 364.400,36.400 359.478,36.400 358.195 C 36.400 357.868,36.220 357.600,36.000 357.600 C 35.780 357.600,35.600 357.240,35.600 356.800 C 35.600 356.360,35.420 356.000,35.200 356.000 C 34.980 356.000,34.800 355.381,34.800 354.624 C 34.800 353.867,34.620 353.136,34.400 353.000 C 33.845 352.657,33.845 115.200,34.400 115.200 C 34.620 115.200,34.800 114.480,34.800 113.600 C 34.800 112.720,34.980 112.000,35.200 112.000 C 35.420 112.000,35.600 111.640,35.600 111.200 C 35.600 110.760,35.780 110.400,36.000 110.400 C 36.220 110.400,36.400 110.097,36.400 109.727 C 36.400 108.935,41.841 103.600,42.648 103.600 C 42.952 103.600,43.200 103.420,43.200 103.200 C 43.200 102.980,43.740 102.800,44.400 102.800 C 45.060 102.800,45.600 102.620,45.600 102.400 C 45.600 102.180,46.500 102.000,47.600 102.000 C 48.700 102.000,49.600 101.820,49.600 101.600 C 49.600 101.335,73.067 101.200,119.200 101.200 C 165.333 101.200,188.800 101.065,188.800 100.800 C 188.800 100.580,189.162 100.400,189.605 100.400 C 190.557 100.400,191.933 99.677,192.843 98.700 C 193.201 98.315,193.704 98.000,193.960 98.000 C 194.599 98.000,197.200 95.352,197.200 94.702 C 197.200 94.413,197.560 93.917,198.000 93.600 C 198.440 93.283,198.800 92.703,198.800 92.312 C 198.800 91.920,198.980 91.600,199.200 91.600 C 199.420 91.600,199.600 91.150,199.600 90.600 C 199.600 90.050,199.780 89.600,200.000 89.600 C 200.248 89.600,200.400 87.467,200.400 84.000 C 200.400 80.533,200.248 78.400,200.000 78.400 C 199.780 78.400,199.600 77.950,199.600 77.400 C 199.600 76.850,199.420 76.400,199.200 76.400 C 198.980 76.400,198.800 76.112,198.800 75.760 C 198.800 75.409,198.305 74.638,197.700 74.048 C 197.095 73.458,196.408 72.633,196.173 72.215 C 195.939 71.796,195.401 71.261,194.979 71.027 C 194.557 70.792,193.918 70.285,193.559 69.900 C 193.200 69.515,192.612 69.200,192.253 69.200 C 191.894 69.200,191.600 69.020,191.600 68.800 C 191.600 68.580,191.330 68.400,191.000 68.400 C 190.670 68.400,190.400 68.220,190.400 68.000 C 190.400 67.780,189.860 67.600,189.200 67.600 C 188.540 67.600,188.000 67.420,188.000 67.200 C 188.000 66.646,42.543 66.646,42.200 67.200 " stroke="none" fill="#444464" fill-rule="evenodd"></path><path id="path1" d="" stroke="none" fill="#484464" fill-rule="evenodd"></path><path id="path2" d="" stroke="none" fill="#484464" fill-rule="evenodd"></path><path id="path3" d="" stroke="none" fill="#484464" fill-rule="evenodd"></path><path id="path4" d="" stroke="none" fill="#484464" fill-rule="evenodd"></path></g></svg>